<svg width="32" height="32" viewBox="0 0 32 32" fill="none" xmlns="http://www.w3.org/2000/svg">
<g clip-path="url(#clip0_136_35)">
<path d="M32 16C32 24.8366 24.8366 32 16 32C7.16344 32 0 24.8366 0 16C0 7.16344 7.16344 0 16 0C24.8366 0 32 7.16344 32 16Z" fill="#DA5858"/>
<path d="M13.9571 16.1777C14.1536 16.3742 14.4722 16.3742 14.6687 16.1777L15.0243 15.8221C15.2208 15.6255 15.2208 15.307 15.0243 15.1105L13.9012 13.9877L15.024 12.8645C15.2205 12.668 15.2205 12.3495 15.024 12.1529L14.6684 11.7973C14.4719 11.6008 14.1533 11.6008 13.9568 11.7973L12.1224 13.6317C11.9259 13.8282 11.9259 14.1468 12.1224 14.3433L13.9571 16.1777ZM16.976 15.8224L17.3316 16.178C17.5281 16.3745 17.8467 16.3745 18.0432 16.178L19.8776 14.3436C20.0741 14.1471 20.0741 13.8286 19.8776 13.632L18.0432 11.7976C17.8467 11.6011 17.5281 11.6011 17.3316 11.7976L16.976 12.1533C16.7795 12.3498 16.7795 12.6683 16.976 12.8648L18.0988 13.9877L16.976 15.1108C16.7795 15.3073 16.7795 15.6259 16.976 15.8224ZM25.5588 21.031H17.935C17.9118 21.6539 17.4725 22.0371 16.9056 22.0371H14.9938C14.4061 22.0371 13.9556 21.4878 13.9634 21.031H6.44124C6.16454 21.031 5.93814 21.2574 5.93814 21.5341V22.0371C5.93814 23.1439 6.84371 24.0495 7.95052 24.0495H24.0495C25.1563 24.0495 26.0619 23.1439 26.0619 22.0371V21.5341C26.0619 21.2574 25.8355 21.031 25.5588 21.031ZM24.0495 9.45983C24.0495 8.62972 23.3703 7.95055 22.5402 7.95055H9.45979C8.62969 7.95055 7.95052 8.62972 7.95052 9.45983V20.0248H24.0495V9.45983ZM22.0371 18.0124H9.96289V9.96292H22.0371V18.0124Z" fill="#FF9696"/>
</g>
<defs>
<clipPath id="clip0_136_35">
<rect width="32" height="32" fill="white"/>
</clipPath>
</defs>
</svg>
