<svg width="30" height="44" viewBox="0 0 30 44" fill="none" xmlns="http://www.w3.org/2000/svg">
<path d="M22.5011 14.6695C24.4899 14.6695 26.3973 13.8968 27.8036 12.5212C29.2099 11.1457 30 9.28007 30 7.33477C30 5.38946 29.2099 3.52384 27.8036 2.1483C26.3973 0.772768 24.4899 0 22.5011 0L7.5033 0C5.51563 0 3.60937 0.772315 2.20388 2.14704C0.798386 3.52177 0.0087881 5.38631 0.0087881 7.33047C0.0087881 9.27463 0.798386 11.1392 2.20388 12.5139C3.60937 13.8886 5.51563 14.6609 7.5033 14.6609C5.51446 14.6609 3.60709 15.4337 2.20077 16.8092C0.794456 18.1848 0.00439514 20.0504 0.00439514 21.9957C0.00439514 23.941 0.794456 25.8066 2.20077 27.1822C3.60709 28.5577 5.51446 29.3305 7.5033 29.3305C6.02015 29.3296 4.57006 29.759 3.33639 30.5642C2.10272 31.3695 1.14088 32.5144 0.572505 33.8544C0.00412881 35.1943 -0.145258 36.669 0.143237 38.092C0.431732 39.5149 1.14515 40.8223 2.19328 41.8487C3.2414 42.875 4.57716 43.5744 6.03163 43.8582C7.48611 44.1421 8.99397 43.9977 10.3645 43.4433C11.7351 42.8889 12.9069 41.9495 13.7316 40.7438C14.5563 39.5381 14.9969 38.1202 14.9978 36.6695V14.6695H22.5011ZM22.5011 14.6695C21.0188 14.6695 19.5698 15.0995 18.3374 15.9049C17.1049 16.7104 16.1443 17.8553 15.5771 19.1948C15.0098 20.5342 14.8614 22.0081 15.1506 23.4301C15.4398 24.8521 16.1536 26.1582 17.2017 27.1834C18.2498 28.2086 19.5852 28.9068 21.039 29.1896C22.4928 29.4725 23.9997 29.3273 25.3691 28.7725C26.7386 28.2176 27.909 27.2781 28.7326 26.0726C29.5561 24.8671 29.9956 23.4498 29.9956 22C29.9954 20.0559 29.2057 18.1915 27.8003 16.8168C26.3948 15.4421 24.4887 14.6698 22.5011 14.6695Z" fill="#FFADAD"/>
</svg>
