<svg width="42" height="38" viewBox="0 0 42 38" fill="none" xmlns="http://www.w3.org/2000/svg">
<path d="M34.1356 34.4576C34.1356 32.5012 35.8657 30.9153 38 30.9153C40.1343 30.9153 41.8644 32.5012 41.8644 34.4576C41.8644 36.414 40.1342 38 38 38C35.8657 38 34.1356 36.414 34.1356 34.4576Z" fill="#FFADAD"/>
<path d="M23.1864 34.4576C23.1864 32.5012 24.7724 30.9153 26.7288 30.9153C28.6852 30.9153 30.2712 32.5012 30.2712 34.4576C30.2712 36.414 28.6852 38 26.7288 38C24.7724 38 23.1864 36.414 23.1864 34.4576Z" fill="#FFADAD"/>
<path d="M11.5932 34.4576C11.5932 32.5012 13.1792 30.9153 15.1356 30.9153C17.092 30.9153 18.678 32.5012 18.678 34.4576C18.678 36.414 17.092 38 15.1356 38C13.1792 38 11.5932 36.414 11.5932 34.4576Z" fill="#FFADAD"/>
<path d="M0 34.4576C1.71034e-07 32.5012 1.58597 30.9153 3.54237 30.9153C5.49877 30.9153 7.08475 32.5012 7.08475 34.4576C7.08475 36.414 5.49877 38 3.54237 38C1.58597 38 -1.71034e-07 36.414 0 34.4576Z" fill="#FFADAD"/>
<path d="M23.1864 24.1525C23.1864 22.1961 24.7724 20.6102 26.7288 20.6102C28.6852 20.6102 30.2712 22.1961 30.2712 24.1525C30.2712 26.1089 28.6852 27.6949 26.7288 27.6949C24.7724 27.6949 23.1864 26.1089 23.1864 24.1525Z" fill="#FFADAD"/>
<path d="M11.5932 24.1525C11.5932 22.1961 13.1792 20.6102 15.1356 20.6102C17.092 20.6102 18.678 22.1961 18.678 24.1525C18.678 26.1089 17.092 27.6949 15.1356 27.6949C13.1792 27.6949 11.5932 26.1089 11.5932 24.1525Z" fill="#FFADAD"/>
<path d="M9.00899e-07 24.1525C1.07193e-06 22.1961 1.58598 20.6102 3.54237 20.6102C5.49877 20.6102 7.08475 22.1961 7.08475 24.1525C7.08475 26.1089 5.49877 27.6949 3.54237 27.6949C1.58597 27.6949 7.29865e-07 26.1089 9.00899e-07 24.1525Z" fill="#FFADAD"/>
<path d="M11.5932 12.5593C11.5932 10.6029 13.1792 9.01695 15.1356 9.01695C17.092 9.01695 18.678 10.6029 18.678 12.5593C18.678 14.5157 17.092 16.1017 15.1356 16.1017C13.1792 16.1017 11.5932 14.5157 11.5932 12.5593Z" fill="#FFADAD"/>
<path d="M2.7027e-06 3.54237C2.87373e-06 1.58597 1.58598 -1.71034e-07 3.54238 0C5.49877 1.71034e-07 7.08475 1.58597 7.08475 3.54237C7.08475 5.49877 5.49877 7.08475 3.54238 7.08475C1.58598 7.08475 2.53166e-06 5.49877 2.7027e-06 3.54237Z" fill="#FFADAD"/>
<path d="M1.8018e-06 13.8475C1.97283e-06 11.8911 1.58598 10.3051 3.54238 10.3051C5.49877 10.3051 7.08475 11.8911 7.08475 13.8475C7.08475 15.8039 5.49877 17.3898 3.54237 17.3898C1.58598 17.3898 1.63076e-06 15.8039 1.8018e-06 13.8475Z" fill="#FFADAD"/>
</svg>
