<svg width="42" height="38" viewBox="0 0 42 38" fill="none" xmlns="http://www.w3.org/2000/svg">
<path d="M7.72881 3.54237C7.72881 5.49877 5.99866 7.08475 3.86441 7.08475C1.73015 7.08475 0 5.49877 0 3.54237C0 1.58597 1.73015 0 3.86441 0C5.99866 0 7.72881 1.58597 7.72881 3.54237Z" fill="#AA5252"/>
<path d="M18.678 3.54237C18.678 5.49877 17.092 7.08475 15.1356 7.08475C13.1792 7.08475 11.5932 5.49877 11.5932 3.54237C11.5932 1.58597 13.1792 0 15.1356 0C17.092 0 18.678 1.58597 18.678 3.54237Z" fill="#AA5252"/>
<path d="M30.2712 3.54237C30.2712 5.49877 28.6852 7.08475 26.7288 7.08475C24.7724 7.08475 23.1864 5.49877 23.1864 3.54237C23.1864 1.58597 24.7724 0 26.7288 0C28.6852 0 30.2712 1.58597 30.2712 3.54237Z" fill="#AA5252"/>
<path d="M41.8644 3.54237C41.8644 5.49877 40.2784 7.08475 38.322 7.08475C36.3656 7.08475 34.7797 5.49877 34.7797 3.54237C34.7797 1.58597 36.3656 0 38.322 0C40.2784 0 41.8644 1.58597 41.8644 3.54237Z" fill="#AA5252"/>
<path d="M18.678 13.8475C18.678 15.8039 17.092 17.3898 15.1356 17.3898C13.1792 17.3898 11.5932 15.8039 11.5932 13.8475C11.5932 11.8911 13.1792 10.3051 15.1356 10.3051C17.092 10.3051 18.678 11.8911 18.678 13.8475Z" fill="#AA5252"/>
<path d="M30.2712 13.8475C30.2712 15.8039 28.6852 17.3898 26.7288 17.3898C24.7724 17.3898 23.1864 15.8039 23.1864 13.8475C23.1864 11.8911 24.7724 10.3051 26.7288 10.3051C28.6852 10.3051 30.2712 11.8911 30.2712 13.8475Z" fill="#AA5252"/>
<path d="M41.8644 13.8475C41.8644 15.8039 40.2784 17.3898 38.322 17.3898C36.3656 17.3898 34.7797 15.8039 34.7797 13.8475C34.7797 11.8911 36.3656 10.3051 38.322 10.3051C40.2784 10.3051 41.8644 11.8911 41.8644 13.8475Z" fill="#AA5252"/>
<path d="M30.2712 25.4407C30.2712 27.3971 28.6852 28.9831 26.7288 28.9831C24.7724 28.9831 23.1864 27.3971 23.1864 25.4407C23.1864 23.4843 24.7724 21.8983 26.7288 21.8983C28.6852 21.8983 30.2712 23.4843 30.2712 25.4407Z" fill="#AA5252"/>
<path d="M41.8644 34.4576C41.8644 36.414 40.2784 38 38.322 38C36.3656 38 34.7797 36.414 34.7797 34.4576C34.7797 32.5012 36.3656 30.9153 38.322 30.9153C40.2784 30.9153 41.8644 32.5012 41.8644 34.4576Z" fill="#AA5252"/>
<path d="M41.8644 24.1525C41.8644 26.1089 40.2784 27.6949 38.322 27.6949C36.3656 27.6949 34.7797 26.1089 34.7797 24.1525C34.7797 22.1961 36.3656 20.6102 38.322 20.6102C40.2784 20.6102 41.8644 22.1961 41.8644 24.1525Z" fill="#AA5252"/>
</svg>
