<svg width="237" height="39" viewBox="0 0 237 39" fill="none" xmlns="http://www.w3.org/2000/svg">
<path d="M23.76 15.408C23.152 14.288 22.272 13.44 21.12 12.864C20 12.256 18.672 11.952 17.136 11.952C14.48 11.952 12.352 12.832 10.752 14.592C9.152 16.32 8.352 18.64 8.352 21.552C8.352 24.656 9.184 27.088 10.848 28.848C12.544 30.576 14.864 31.44 17.808 31.44C19.824 31.44 21.52 30.928 22.896 29.904C24.304 28.88 25.328 27.408 25.968 25.488H15.552V19.44H33.408V27.072C32.8 29.12 31.76 31.024 30.288 32.784C28.848 34.544 27.008 35.968 24.768 37.056C22.528 38.144 20 38.688 17.184 38.688C13.856 38.688 10.88 37.968 8.256 36.528C5.664 35.056 3.632 33.024 2.16 30.432C0.72 27.84 0 24.88 0 21.552C0 18.224 0.72 15.264 2.16 12.672C3.632 10.048 5.664 8.016 8.256 6.576C10.848 5.104 13.808 4.368 17.136 4.368C21.168 4.368 24.56 5.344 27.312 7.296C30.096 9.248 31.936 11.952 32.832 15.408H23.76Z" fill="#DA5858"/>
<path d="M42.0825 8.88C40.6425 8.88 39.4585 8.464 38.5305 7.632C37.6345 6.768 37.1865 5.712 37.1865 4.464C37.1865 3.184 37.6345 2.128 38.5305 1.296C39.4585 0.432 40.6425 0 42.0825 0C43.4905 0 44.6425 0.432 45.5385 1.296C46.4665 2.128 46.9305 3.184 46.9305 4.464C46.9305 5.712 46.4665 6.768 45.5385 7.632C44.6425 8.464 43.4905 8.88 42.0825 8.88ZM46.1625 11.664V38.448H37.9545V11.664H46.1625Z" fill="#DA5858"/>
<path d="M64.3027 38.832C61.6787 38.832 59.3107 38.272 57.1987 37.152C55.1187 36.032 53.4707 34.432 52.2547 32.352C51.0707 30.272 50.4787 27.84 50.4787 25.056C50.4787 22.304 51.0867 19.888 52.3027 17.808C53.5187 15.696 55.1828 14.08 57.2948 12.96C59.4068 11.84 61.7748 11.28 64.3988 11.28C67.0227 11.28 69.3908 11.84 71.5028 12.96C73.6148 14.08 75.2787 15.696 76.4948 17.808C77.7108 19.888 78.3187 22.304 78.3187 25.056C78.3187 27.808 77.6947 30.24 76.4467 32.352C75.2307 34.432 73.5508 36.032 71.4068 37.152C69.2948 38.272 66.9268 38.832 64.3027 38.832ZM64.3027 31.728C65.8707 31.728 67.1988 31.152 68.2868 30C69.4068 28.848 69.9668 27.2 69.9668 25.056C69.9668 22.912 69.4227 21.264 68.3347 20.112C67.2787 18.96 65.9668 18.384 64.3988 18.384C62.7987 18.384 61.4707 18.96 60.4147 20.112C59.3587 21.232 58.8307 22.88 58.8307 25.056C58.8307 27.2 59.3427 28.848 60.3667 30C61.4227 31.152 62.7347 31.728 64.3027 31.728Z" fill="#DA5858"/>
<path d="M94.7213 30.768L100.529 11.664H109.265L99.7613 38.448H89.6332L80.1292 11.664H88.9133L94.7213 30.768Z" fill="#DA5858"/>
<path d="M111.088 25.008C111.088 22.256 111.6 19.84 112.624 17.76C113.68 15.68 115.104 14.08 116.896 12.96C118.688 11.84 120.688 11.28 122.896 11.28C124.784 11.28 126.432 11.664 127.84 12.432C129.28 13.2 130.384 14.208 131.152 15.456V11.664H139.36V38.448H131.152V34.656C130.352 35.904 129.232 36.912 127.792 37.68C126.384 38.448 124.736 38.832 122.848 38.832C120.672 38.832 118.688 38.272 116.896 37.152C115.104 36 113.68 34.384 112.624 32.304C111.6 30.192 111.088 27.76 111.088 25.008ZM131.152 25.056C131.152 23.008 130.576 21.392 129.424 20.208C128.304 19.024 126.928 18.432 125.296 18.432C123.664 18.432 122.272 19.024 121.12 20.208C120 21.36 119.44 22.96 119.44 25.008C119.44 27.056 120 28.688 121.12 29.904C122.272 31.088 123.664 31.68 125.296 31.68C126.928 31.68 128.304 31.088 129.424 29.904C130.576 28.72 131.152 27.104 131.152 25.056Z" fill="#DA5858"/>
<path d="M161.618 11.376C164.754 11.376 167.25 12.4 169.106 14.448C170.994 16.464 171.938 19.248 171.938 22.8V38.448H163.778V23.904C163.778 22.112 163.314 20.72 162.386 19.728C161.458 18.736 160.21 18.24 158.642 18.24C157.074 18.24 155.826 18.736 154.898 19.728C153.97 20.72 153.506 22.112 153.506 23.904V38.448H145.298V11.664H153.506V15.216C154.338 14.032 155.458 13.104 156.866 12.432C158.274 11.728 159.858 11.376 161.618 11.376Z" fill="#DA5858"/>
<path d="M193.962 11.376C197.098 11.376 199.594 12.4 201.45 14.448C203.338 16.464 204.282 19.248 204.282 22.8V38.448H196.122V23.904C196.122 22.112 195.658 20.72 194.73 19.728C193.802 18.736 192.554 18.24 190.986 18.24C189.418 18.24 188.17 18.736 187.242 19.728C186.314 20.72 185.85 22.112 185.85 23.904V38.448H177.642V11.664H185.85V15.216C186.682 14.032 187.802 13.104 189.21 12.432C190.618 11.728 192.202 11.376 193.962 11.376Z" fill="#DA5858"/>
<path d="M208.354 25.008C208.354 22.256 208.866 19.84 209.89 17.76C210.946 15.68 212.37 14.08 214.162 12.96C215.954 11.84 217.954 11.28 220.162 11.28C222.05 11.28 223.698 11.664 225.106 12.432C226.546 13.2 227.65 14.208 228.418 15.456V11.664H236.626V38.448H228.418V34.656C227.618 35.904 226.498 36.912 225.058 37.68C223.65 38.448 222.002 38.832 220.114 38.832C217.938 38.832 215.954 38.272 214.162 37.152C212.37 36 210.946 34.384 209.89 32.304C208.866 30.192 208.354 27.76 208.354 25.008ZM228.418 25.056C228.418 23.008 227.842 21.392 226.69 20.208C225.57 19.024 224.194 18.432 222.562 18.432C220.93 18.432 219.538 19.024 218.386 20.208C217.266 21.36 216.706 22.96 216.706 25.008C216.706 27.056 217.266 28.688 218.386 29.904C219.538 31.088 220.93 31.68 222.562 31.68C224.194 31.68 225.57 31.088 226.69 29.904C227.842 28.72 228.418 27.104 228.418 25.056Z" fill="#DA5858"/>
</svg>
