<svg width="238" height="40" viewBox="0 0 238 40" fill="none" xmlns="http://www.w3.org/2000/svg">
<path d="M24.344 15.96C23.736 14.84 22.856 13.992 21.704 13.416C20.584 12.808 19.256 12.504 17.72 12.504C15.064 12.504 12.936 13.384 11.336 15.144C9.73598 16.872 8.93599 19.192 8.93599 22.104C8.93599 25.208 9.76799 27.64 11.432 29.4C13.128 31.128 15.448 31.992 18.392 31.992C20.408 31.992 22.104 31.48 23.48 30.456C24.888 29.432 25.912 27.96 26.552 26.04H16.136V19.992H33.992V27.624C33.384 29.672 32.344 31.576 30.872 33.336C29.432 35.096 27.592 36.52 25.352 37.608C23.112 38.696 20.584 39.24 17.768 39.24C14.44 39.24 11.464 38.52 8.83998 37.08C6.24798 35.608 4.21598 33.576 2.74398 30.984C1.30398 28.392 0.583984 25.432 0.583984 22.104C0.583984 18.776 1.30398 15.816 2.74398 13.224C4.21598 10.6 6.24798 8.568 8.83998 7.128C11.432 5.656 14.392 4.92 17.72 4.92C21.752 4.92 25.144 5.896 27.896 7.848C30.68 9.8 32.52 12.504 33.416 15.96H24.344Z" fill="#FBF8F8"/>
<path d="M42.6665 9.432C41.2265 9.432 40.0425 9.016 39.1145 8.184C38.2185 7.32 37.7705 6.264 37.7705 5.016C37.7705 3.736 38.2185 2.68 39.1145 1.848C40.0425 0.984002 41.2265 0.552002 42.6665 0.552002C44.0745 0.552002 45.2265 0.984002 46.1225 1.848C47.0505 2.68 47.5145 3.736 47.5145 5.016C47.5145 6.264 47.0505 7.32 46.1225 8.184C45.2265 9.016 44.0745 9.432 42.6665 9.432ZM46.7465 12.216V39H38.5385V12.216H46.7465Z" fill="#FBF8F8"/>
<path d="M64.8867 39.384C62.2627 39.384 59.8947 38.824 57.7827 37.704C55.7027 36.584 54.0547 34.984 52.8387 32.904C51.6547 30.824 51.0627 28.392 51.0627 25.608C51.0627 22.856 51.6707 20.44 52.8867 18.36C54.1027 16.248 55.7667 14.632 57.8787 13.512C59.9907 12.392 62.3587 11.832 64.9827 11.832C67.6067 11.832 69.9747 12.392 72.0867 13.512C74.1987 14.632 75.8627 16.248 77.0787 18.36C78.2947 20.44 78.9027 22.856 78.9027 25.608C78.9027 28.36 78.2787 30.792 77.0307 32.904C75.8147 34.984 74.1347 36.584 71.9907 37.704C69.8787 38.824 67.5107 39.384 64.8867 39.384ZM64.8867 32.28C66.4547 32.28 67.7827 31.704 68.8707 30.552C69.9907 29.4 70.5507 27.752 70.5507 25.608C70.5507 23.464 70.0067 21.816 68.9187 20.664C67.8627 19.512 66.5507 18.936 64.9827 18.936C63.3827 18.936 62.0547 19.512 60.9987 20.664C59.9427 21.784 59.4147 23.432 59.4147 25.608C59.4147 27.752 59.9267 29.4 60.9507 30.552C62.0067 31.704 63.3187 32.28 64.8867 32.28Z" fill="#FBF8F8"/>
<path d="M95.3052 31.32L101.113 12.216H109.849L100.345 39H90.2172L80.7132 12.216H89.4972L95.3052 31.32Z" fill="#FBF8F8"/>
<path d="M111.672 25.56C111.672 22.808 112.184 20.392 113.208 18.312C114.264 16.232 115.688 14.632 117.48 13.512C119.272 12.392 121.272 11.832 123.48 11.832C125.368 11.832 127.016 12.216 128.424 12.984C129.864 13.752 130.968 14.76 131.736 16.008V12.216H139.944V39H131.736V35.208C130.936 36.456 129.816 37.464 128.376 38.232C126.968 39 125.32 39.384 123.432 39.384C121.256 39.384 119.272 38.824 117.48 37.704C115.688 36.552 114.264 34.936 113.208 32.856C112.184 30.744 111.672 28.312 111.672 25.56ZM131.736 25.608C131.736 23.56 131.16 21.944 130.008 20.76C128.888 19.576 127.512 18.984 125.88 18.984C124.248 18.984 122.856 19.576 121.704 20.76C120.584 21.912 120.024 23.512 120.024 25.56C120.024 27.608 120.584 29.24 121.704 30.456C122.856 31.64 124.248 32.232 125.88 32.232C127.512 32.232 128.888 31.64 130.008 30.456C131.16 29.272 131.736 27.656 131.736 25.608Z" fill="#FBF8F8"/>
<path d="M162.202 11.928C165.338 11.928 167.834 12.952 169.69 15C171.578 17.016 172.522 19.8 172.522 23.352V39H164.362V24.456C164.362 22.664 163.898 21.272 162.97 20.28C162.042 19.288 160.794 18.792 159.226 18.792C157.658 18.792 156.41 19.288 155.482 20.28C154.554 21.272 154.09 22.664 154.09 24.456V39H145.882V12.216H154.09V15.768C154.922 14.584 156.042 13.656 157.45 12.984C158.858 12.28 160.442 11.928 162.202 11.928Z" fill="#FBF8F8"/>
<path d="M194.546 11.928C197.682 11.928 200.178 12.952 202.034 15C203.922 17.016 204.866 19.8 204.866 23.352V39H196.706V24.456C196.706 22.664 196.242 21.272 195.314 20.28C194.386 19.288 193.138 18.792 191.57 18.792C190.002 18.792 188.754 19.288 187.826 20.28C186.898 21.272 186.434 22.664 186.434 24.456V39H178.226V12.216H186.434V15.768C187.266 14.584 188.386 13.656 189.794 12.984C191.202 12.28 192.786 11.928 194.546 11.928Z" fill="#FBF8F8"/>
<path d="M208.938 25.56C208.938 22.808 209.45 20.392 210.474 18.312C211.53 16.232 212.954 14.632 214.746 13.512C216.538 12.392 218.538 11.832 220.746 11.832C222.634 11.832 224.282 12.216 225.69 12.984C227.13 13.752 228.234 14.76 229.002 16.008V12.216H237.21V39H229.002V35.208C228.202 36.456 227.082 37.464 225.642 38.232C224.234 39 222.586 39.384 220.698 39.384C218.522 39.384 216.538 38.824 214.746 37.704C212.954 36.552 211.53 34.936 210.474 32.856C209.45 30.744 208.938 28.312 208.938 25.56ZM229.002 25.608C229.002 23.56 228.426 21.944 227.274 20.76C226.154 19.576 224.778 18.984 223.146 18.984C221.514 18.984 220.122 19.576 218.97 20.76C217.85 21.912 217.29 23.512 217.29 25.56C217.29 27.608 217.85 29.24 218.97 30.456C220.122 31.64 221.514 32.232 223.146 32.232C224.778 32.232 226.154 31.64 227.274 30.456C228.426 29.272 229.002 27.656 229.002 25.608Z" fill="#FBF8F8"/>
</svg>
