<svg width="14" height="21" viewBox="0 0 14 21" fill="none" xmlns="http://www.w3.org/2000/svg">
<path d="M10.5005 7.00137C11.4286 7.00137 12.3187 6.63255 12.975 5.97604C13.6313 5.31954 14 4.42912 14 3.50068C14 2.57224 13.6313 1.68183 12.975 1.02533C12.3187 0.368821 11.4286 0 10.5005 0L3.50154 0C2.57396 0 1.68437 0.368605 1.02848 1.02473C0.37258 1.68085 0.00410111 2.57074 0.00410111 3.49863C0.00410111 4.42653 0.37258 5.31642 1.02848 5.97254C1.68437 6.62866 2.57396 6.99727 3.50154 6.99727C2.57342 6.99727 1.68331 7.36609 1.02703 8.02259C0.370746 8.6791 0.00205106 9.56951 0.00205106 10.4979C0.00205106 11.4264 0.370746 12.3168 1.02703 12.9733C1.68331 13.6298 2.57342 13.9986 3.50154 13.9986C2.80941 13.9982 2.1327 14.2031 1.55698 14.5875C0.98127 14.9718 0.532412 15.5183 0.267169 16.1578C0.00192678 16.7973 -0.0677869 17.5011 0.0668439 18.1803C0.201475 18.8594 0.534403 19.4834 1.02353 19.9732C1.51265 20.4631 2.13601 20.7969 2.81476 20.9323C3.49352 21.0678 4.19719 20.9989 4.83679 20.7343C5.47639 20.4697 6.0232 20.0214 6.40807 19.4459C6.79293 18.8704 6.99857 18.1937 6.99898 17.5014V7.00137H10.5005ZM10.5005 7.00137C9.80879 7.00137 9.13259 7.20656 8.55744 7.59099C7.98229 7.97543 7.53401 8.52184 7.2693 9.16113C7.00459 9.80042 6.93533 10.5039 7.07028 11.1825C7.20523 11.8612 7.53833 12.4846 8.02745 12.9739C8.51658 13.4632 9.13976 13.7964 9.8182 13.9314C10.4966 14.0664 11.1999 13.9971 11.8389 13.7323C12.478 13.4675 13.0242 13.0191 13.4085 12.4437C13.7928 11.8684 13.9979 11.192 13.9979 10.5C13.9978 9.57214 13.6293 8.68231 12.9735 8.02621C12.3176 7.37012 11.4281 7.00148 10.5005 7.00137Z" fill="#FFADAD"/>
</svg>
