<svg width="46" height="36" viewBox="0 0 46 36" fill="none" xmlns="http://www.w3.org/2000/svg">
<path d="M44.3571 44.5714H1.64286C1.20714 44.5714 0.789277 44.7671 0.481182 45.1154C0.173086 45.4637 0 45.936 0 46.4286V50.1429C0 50.6354 0.173086 51.1078 0.481182 51.4561C0.789277 51.8043 1.20714 52 1.64286 52H44.3571C44.7929 52 45.2107 51.8043 45.5188 51.4561C45.8269 51.1078 46 50.6354 46 50.1429V46.4286C46 45.936 45.8269 45.4637 45.5188 45.1154C45.2107 44.7671 44.7929 44.5714 44.3571 44.5714ZM44.3571 29.7143H1.64286C1.20714 29.7143 0.789277 29.9099 0.481182 30.2582C0.173086 30.6065 0 31.0789 0 31.5714V35.2857C0 35.7783 0.173086 36.2506 0.481182 36.5989C0.789277 36.9472 1.20714 37.1429 1.64286 37.1429H44.3571C44.7929 37.1429 45.2107 36.9472 45.5188 36.5989C45.8269 36.2506 46 35.7783 46 35.2857V31.5714C46 31.0789 45.8269 30.6065 45.5188 30.2582C45.2107 29.9099 44.7929 29.7143 44.3571 29.7143ZM44.3571 14.8571H1.64286C1.20714 14.8571 0.789277 15.0528 0.481182 15.4011C0.173086 15.7494 0 16.2217 0 16.7143V20.4286C0 20.9211 0.173086 21.3935 0.481182 21.7418C0.789277 22.09 1.20714 22.2857 1.64286 22.2857H44.3571C44.7929 22.2857 45.2107 22.09 45.5188 21.7418C45.8269 21.3935 46 20.9211 46 20.4286V16.7143C46 16.2217 45.8269 15.7494 45.5188 15.4011C45.2107 15.0528 44.7929 14.8571 44.3571 14.8571ZM44.3571 0H1.64286C1.20714 0 0.789277 0.195663 0.481182 0.543944C0.173086 0.892226 0 1.3646 0 1.85714V5.57143C0 6.06397 0.173086 6.53634 0.481182 6.88463C0.789277 7.23291 1.20714 7.42857 1.64286 7.42857H44.3571C44.7929 7.42857 45.2107 7.23291 45.5188 6.88463C45.8269 6.53634 46 6.06397 46 5.57143V1.85714C46 1.3646 45.8269 0.892226 45.5188 0.543944C45.2107 0.195663 44.7929 0 44.3571 0Z" fill="#141414"/>
</svg>
