<svg width="44" height="36" viewBox="0 0 44 36" fill="none" xmlns="http://www.w3.org/2000/svg">
<path d="M17.5333 18.3885C17.963 18.8181 18.6594 18.8181 19.0891 18.3885L19.8667 17.6109C20.2964 17.1812 20.2964 16.4848 19.8667 16.0551L17.4109 13.6L19.866 11.1443C20.2957 10.7146 20.2957 10.0181 19.866 9.58846L19.0884 8.8109C18.6588 8.38121 17.9623 8.38121 17.5326 8.8109L13.5217 12.8218C13.0921 13.2515 13.0921 13.9479 13.5217 14.3776L17.5333 18.3885ZM24.134 17.6116L24.9116 18.3892C25.3413 18.8188 26.0377 18.8188 26.4674 18.3892L30.4783 14.3783C30.9079 13.9486 30.9079 13.2521 30.4783 12.8225L26.4674 8.81159C26.0377 8.3819 25.3413 8.3819 24.9116 8.81159L24.134 9.58915C23.7043 10.0188 23.7043 10.7153 24.134 11.145L26.5891 13.6L24.134 16.0558C23.7043 16.4855 23.7043 17.1819 24.134 17.6116ZM42.9 29H26.2309C26.18 30.362 25.2196 31.2 23.98 31.2H19.8C18.5151 31.2 17.5299 29.999 17.5471 29H1.1C0.495 29 0 29.495 0 30.1V31.2C0 33.62 1.98 35.6 4.4 35.6H39.6C42.02 35.6 44 33.62 44 31.2V30.1C44 29.495 43.505 29 42.9 29ZM39.6 3.70002C39.6 1.88502 38.115 0.400024 36.3 0.400024H7.7C5.885 0.400024 4.4 1.88502 4.4 3.70002V26.8H39.6V3.70002ZM35.2 22.4H8.8V4.80002H35.2V22.4Z" fill="#DA5858"/>
</svg>
