<svg width="64" height="64" viewBox="0 0 64 64" fill="none" xmlns="http://www.w3.org/2000/svg">
<path d="M32 20C25.3875 20 20 25.3875 20 32C20 38.6125 25.3875 44 32 44C38.6125 44 44 38.6125 44 32C44 25.3875 38.6125 20 32 20ZM62.8 30.0625L50.9625 24.15L55.15 11.6C55.7125 9.9 54.1 8.2875 52.4125 8.8625L39.8625 13.05L33.9375 1.2C33.1375 -0.4 30.8625 -0.4 30.0625 1.2L24.15 13.0375L11.5875 8.85C9.8875 8.2875 8.275 9.9 8.85 11.5875L13.0375 24.1375L1.2 30.0625C-0.4 30.8625 -0.4 33.1375 1.2 33.9375L13.0375 39.85L8.85 52.4125C8.2875 54.1125 9.9 55.725 11.5875 55.15L24.1375 50.9625L30.05 62.8C30.85 64.4 33.125 64.4 33.925 62.8L39.8375 50.9625L52.3875 55.15C54.0875 55.7125 55.7 54.1 55.125 52.4125L50.9375 39.8625L62.775 33.95C64.4 33.1375 64.4 30.8625 62.8 30.0625ZM43.3125 43.3125C37.075 49.55 26.925 49.55 20.6875 43.3125C14.45 37.075 14.45 26.925 20.6875 20.6875C26.925 14.45 37.075 14.45 43.3125 20.6875C49.55 26.925 49.55 37.075 43.3125 43.3125Z" fill="white"/>
</svg>
