<svg width="26" height="26" viewBox="0 0 26 26" fill="none" xmlns="http://www.w3.org/2000/svg">
<g clip-path="url(#clip0_170_4)">
<path d="M22.7607 12.9902L22.1309 20.6709C21.9697 22.6582 19.0107 22.3848 19.1719 20.4316L19.6602 14.4502L17.6533 14.5625C18.1465 15.5732 18.4248 16.7061 18.4248 17.9072C18.4248 19.9189 17.6387 21.75 16.3594 23.1074L14.4404 21.1885C17.2676 18.0781 15.0801 13.0244 10.8271 13.0244C9.5625 13.0244 8.41016 13.5078 7.5459 14.2939L5.62695 12.375C6.70117 11.3643 8.07324 10.6611 9.60156 10.4121L13.2783 6.22754L11.1982 5.0166L8.67871 7.2627C7.21387 8.57129 5.23145 6.35937 6.70117 5.0459L10.0215 2.08203C10.5 1.65234 11.1982 1.58398 11.7549 1.90625C11.7549 1.90625 18.5566 5.85645 18.5664 5.86621C19.3574 6.35938 19.5771 7.62402 18.8643 8.43457L16.0127 11.6816L21.1934 11.3936C22.0967 11.3398 22.834 12.0967 22.7607 12.9902ZM19.5918 5.4707C20.9639 5.4707 22.0771 4.35742 22.0771 2.98535C22.0771 1.61328 20.9639 0.5 19.5918 0.5C18.2197 0.5 17.1064 1.61328 17.1064 2.98535C17.1064 4.35742 18.2197 5.4707 19.5918 5.4707ZM10.832 22.79C6.89648 22.79 4.61133 18.3662 6.79395 15.168L4.85547 13.2295C3.83984 14.5137 3.23438 16.1396 3.23438 17.9023C3.23438 24.2842 10.5928 27.7363 15.5098 23.8838L13.5713 21.9453C12.79 22.4775 11.8477 22.79 10.832 22.79Z" fill="black"/>
</g>
<defs>
<clipPath id="clip0_170_4">
<rect width="25" height="25" fill="white" transform="translate(0.5 0.5)"/>
</clipPath>
</defs>
</svg>
